PathFileType	4	(X/Y/Z)	C:/Users/beibeiliu/ov580/test_trc/User2\sequence.9_training_dense_left.trc
DataRate	CameraRate	NumFrames	NumMarkers	Units	OrigDataRate	OrigDataStartFrame	OrigNumFrames
120	120	13	19	mm	120	1	54
Frame#	Time	ThumbCMC			ThumbMCP			ThumbIP			ThumbTip			IndexMCP			IndexPIP			IndexTip			MiddleMCP			MiddlePIP			MiddleTip			RingMCP			RingPIP			RingTip			PinkyMCP			PinkyPIP			PinkyTip			BackHand1			BackHand2			BackHand3	
		X0	Y0	Z0	X1	Y1	Z1	X2	Y2	Z2	X3	Y3	Z3	X4	Y4	Z4	X5	Y5	Z5	X6	Y6	Z6	X7	Y7	Z7	X8	Y8	Z8	X9	Y9	Z9	X10	Y10	Z10	X11	Y11	Z11	X12	Y12	Z12	X13	Y13	Z13	X14	Y14	Z14	X15	Y15	Z15	X16	Y16	Z16	X17	Y17	Z17	X18	Y18	Z18	
0	0	-236.532	38.2857	-22.018	-218.993	45.5613	-53.8064	-208.827	49.9023	-89.0099	-211.573	31.0736	-117.617	-279.493	28.4294	-91.9191	-259.767	29.4598	-117.746	-224.309	16.9732	-123.713	-303.294	7.29321	-87.9829	-312.905	10.4181	-120.624	-313.922	10.915	-153.789	-301.879	-17.4471	-83.932	-312.776	-18.3624	-107.147	-317.694	-17.2304	-137.401	-286.047	-45.1813	-71.855	-298.496	-48.6709	-92.2444	-313.785	-47.6558	-114.867	-281.224	-23.2296	-33.2618	-268.906	-25.4229	2.40048	-275.999	10.7015	-15.6722	
1	0.00833333	-218.319	33.653	-17.7003	-199.938	37.5395	-49.0484	-193.854	36.2577	-82.1259	-199.134	26.7882	-111.939	-261.692	51.3004	-85.229	-244.016	44.4337	-114.455	-218.63	19.9498	-119.881	-290.815	43.7466	-82.4289	-297.046	52.053	-110.154	-297.369	54.681	-146.301	-301.587	14.9362	-76.459	-309.093	26.2673	-101.579	-312.267	32.6386	-136.573	-293.538	-13.4552	-66.4617	-313.734	-8.69167	-93.0627	-324.813	-3.13139	-110.386	-282.271	-3.18688	-26.9673	-274.896	-7.46527	3.79447	-263.473	28.0685	-11.5008	
2	0.0166667	-204.573	25.702	-11.8348	-188.099	24.6821	-42.3918	-180.846	27.1504	-82.2449	-189.811	21.6462	-104.478	-234.912	69.6574	-79.0157	-228.898	59.2401	-105.725	-212.332	31.5839	-116.2	-270.631	69.1432	-70.0287	-272.254	84.7402	-100.323	-270.094	91.6936	-132.653	-285.103	51.2756	-65.4148	-293.441	67.6182	-95.22	-294.292	75.2654	-124.76	-296.935	19.9103	-60.4008	-311.94	32.0728	-83.7729	-319.333	44.0914	-103.292	-279.676	21.1735	-21.6585	-271.65	10.4214	7.29053	-248.667	37.3462	-3.0006	
3	0.025	-190.979	23.3141	-12.4965	-179.424	16.7001	-41.8033	-173.146	16.2128	-77.201	-181.484	14.6344	-101.586	-213.196	73.1873	-73.8822	-204.676	61.1367	-103.889	-208.486	32.7824	-113.441	-242.252	83.375	-62.9533	-242.62	100.907	-95.9082	-242.336	107.263	-127.132	-263.878	74.1497	-60.4608	-268.925	90.6574	-86.3947	-266.21	99.886	-111.43	-280.77	45.4912	-54.1906	-293.639	64.1867	-74.8848	-303.462	77.9984	-92.7537	-265.001	41.7973	-18.855	-265.568	26.5014	11.2048	-230.452	47.315	-0.499308	
4	0.0333333	-182.999	16.6634	-5.89594	-165.954	9.27486	-38.9834	-158.071	3.8162	-72.1507	-169.905	3.5079	-99.8216	-191.714	66.0493	-71.2945	-188.326	54.0546	-101.003	-190.138	21.9198	-112.518	-219.551	84.519	-68.9498	-217.301	95.4088	-101.117	-217.268	100.346	-128.394	-249.755	72.5227	-62.5834	-247.341	90.6741	-89.6861	-246.875	97.8235	-118.736	-271.388	49.3766	-55.1329	-274.938	65.7418	-75.073	-285.374	81.2279	-93.2536	-251.026	46.5726	-16.7366	-247.035	35.0557	12.671	-215.625	47.1019	-0.552573	
5	0.0416667	-168.962	15.8257	-4.3705	-152.066	2.08608	-30.2116	-146.218	-6.73258	-65.8723	-155.086	-12.5711	-91.6638	-174.142	52.6358	-72.0086	-174.095	32.8198	-102.331	-174.171	3.15453	-107.579	-205.813	71.0125	-75.0423	-199.295	78.8739	-105.124	-199.68	79.4738	-137.066	-233.549	62.8464	-67.9233	-232.493	75.9069	-97.1795	-230.212	80.113	-123.391	-253.261	42.5541	-57.1646	-257.977	53.6081	-78.4716	-267.565	65.9834	-100.452	-233.249	42.8608	-15.2281	-236.178	35.1076	13.6696	-198.436	45.8638	0.251589	
6	0.05	-155.999	15.6076	2.20568	-136.815	-1.93607	-21.699	-131.838	-16.9201	-49.8059	-139.29	-24.9194	-76.45	-164.185	37.9026	-77.2788	-155.459	18.4687	-95.6879	-159.773	-14.8262	-98.8817	-193.607	56.4783	-79.99	-185.021	59.5991	-107.403	-180.743	56.8695	-142.827	-216.388	48.0079	-70.0065	-217.815	55.9852	-100.145	-211.499	59.8691	-132.532	-242.667	28.1399	-60.3369	-247.659	37.6738	-87.7152	-253.267	45.9456	-107.932	-221.599	35.1457	-17.3525	-228.967	33.2107	13.7794	-192.946	44.6821	0.612549	
7	0.0583333	-153.287	25.397	10.3504	-128.507	7.75063	-9.83082	-114.035	-10.2747	-41.2861	-118.217	-25.9236	-63.8159	-157.507	30.1411	-76.3059	-143.164	3.22507	-91.0676	-143.293	-26.2352	-86.0394	-187.999	40.1231	-84.5664	-180.188	37.7302	-113.155	-168.19	30.2607	-147.175	-211.663	30.1761	-75.7859	-214.456	29.5842	-106.518	-207.581	27.9079	-134.515	-234.587	9.00107	-64.1029	-236.927	9.82468	-87.5545	-243.457	13.5309	-115.502	-223.683	24.9266	-21.1952	-227.615	29.3796	8.09051	-191.272	46.9024	-4.24687	
8	0.0666667	-158.441	38.6415	6.31673	-129.333	24.8944	-8.02085	-110.534	6.68354	-29.2192	-108.434	-14.0097	-51.7996	-157.478	27.6447	-75.3458	-134.89	0.496623	-84.9579	-122.427	-25.0457	-66.1974	-188.072	26.6759	-85.3635	-177.239	17.4086	-119.378	-163.116	8.02258	-144.836	-209.847	10.9469	-80.6761	-207.662	5.37373	-108.447	-194.756	0.935137	-137.691	-224.816	-12.5107	-59.3518	-225.626	-15.6668	-86.1202	-230.426	-19.6047	-113.402	-220.93	15.4714	-26.3603	-232.015	22.2347	5.52625	-200.129	44.2195	-10.3703	
9	0.075	-174.632	50.5619	3.0677	-136.301	49.1607	-7.17006	-109.443	36.7562	-22.9254	-103.33	11.6992	-38.7521	-158.582	28.9725	-76.7046	-133.734	10.9254	-81.4449	-113.777	-7.06533	-57.7306	-186.486	17.5984	-89.6858	-171.025	10.5517	-117.313	-152.542	-1.13564	-140.393	-201.808	-1.30965	-81.9569	-197.903	-12.9287	-106.159	-180.255	-18.3079	-132.795	-208.264	-24.0763	-56.3025	-208.623	-36.1942	-85.1887	-206.175	-42.3505	-108.657	-221.992	1.70495	-28.4809	-235.32	10.9395	-3.44237	-212.135	41.2465	-16.887	
10	0.0833333	-193.633	62.3062	-6.26606	-159.658	72.1266	-12.8426	-126.647	67.6963	-26.7721	-107.994	46.6395	-39.577	-162.22	32.3857	-77.8744	-131.218	31.2262	-77.3524	-110.495	25.8374	-47.5967	-181.599	10.4725	-91.0484	-162.774	7.21539	-114.011	-138.852	-1.75917	-134.791	-188.953	-16.1915	-75.9448	-177.772	-21.9553	-101.208	-156.986	-23.3249	-127.231	-187.802	-29.4403	-50.3802	-181.391	-43.4345	-76.502	-173.176	-51.8961	-98.0894	-213.74	-7.901	-27.4615	-230.63	-1.46651	-5.5888	-222.959	30.7318	-24.3153	
11	0.0916667	-213.549	61.9333	-10.675	-186.997	90.0775	-20.1641	-153.98	97.602	-32.7037	-129.282	81.6693	-39.2633	-166.322	43.6041	-79.8856	-135.92	55.0821	-76.0574	-120.588	61.6355	-50.0518	-174.962	12.4861	-86.6703	-151.298	12.2825	-112.397	-124.044	15.7082	-132.703	-171.635	-11.5606	-68.689	-156.857	-14.592	-94.0089	-135.5	-16.2071	-115.356	-165.656	-22.387	-47.7853	-152.588	-32.6224	-64.169	-138.208	-46.0049	-85.135	-200.904	-9.90697	-26.9945	-221.812	-10.366	-2.60522	-223.873	25.1637	-29.0506	
12	0.1	-224.94	60.2321	-18.9829	-207.005	89.6554	-25.3386	-179.403	111.474	-37.8554	-149.774	105.794	-45.4804	-172.913	52.8779	-82.1287	-149.444	73.5884	-79.3297	-137.045	86.78	-54.3385	-172.76	20.2131	-88.1813	-148.525	24.4105	-112.517	-125.625	31.2703	-129.413	-161.389	-3.43638	-66.5935	-145.421	-1.89554	-93.4924	-124.165	1.25846	-112.888	-152.871	-8.87648	-38.0212	-136.22	-16.3157	-56.8185	-119.367	-25.4815	-79.212	-192.87	-0.657905	-26.7246	-215.491	-7.66551	0.455851	-224.808	19.3129	-27.3122	
